<svg xmlns="http://www.w3.org/2000/svg" width="14.655" height="14.88" viewBox="0 0 14.655 14.88"><g id="Group" transform="translate(-918 -214)"><path id="Vector" fill="#007ee5" d="M3.837,2.249a.346.346,0,0,1-.178-.05L0,0V3.914L4.87,6.842V.966L4.127,2.093A.347.347,0,0,1,3.837,2.249Z" transform="translate(920.102 222.038)"/><path id="Vector-2" fill="#007ee5" d="M6.654,1.092,4.9,0,0,2.943,1.758,4.036Z" data-name="Vector" transform="translate(918 214.061)"/><path id="Vector-3" fill="#007ee5" d="M5.965,2.987,1,0,0,1.513,4.968,4.5Z" data-name="Vector" transform="translate(918.864 218.972)"/><path id="Vector-4" fill="#007ee5" d="M4.89,0,0,2.94,4.89,5.88,9.78,2.94Z" data-name="Vector" transform="translate(920.429 215.563)"/><path id="Vector-5" fill="#007ee5" d="M3.114,1.115,0,2.987,1.007,4.5,5.975,1.514,4.968,0Z" data-name="Vector" transform="translate(925.808 218.971)"/><path id="Vector-6" fill="#007ee5" d="M0,1.147,4.9,4.094,6.679,2.947,1.778,0Z" data-name="Vector" transform="translate(925.976 214)"/><path id="Vector-7" fill="#007ee5" d="M1.045,2.242a.347.347,0,0,1-.289-.155L0,.951V6.834L4.87,3.907V0L1.223,2.192A.346.346,0,0,1,1.045,2.242Z" data-name="Vector" transform="translate(925.666 222.046)"/></g></svg>